<?xml version="1.0" ?><svg height="512" id="SVGRoot" version="1.1" viewBox="0 0 512 512" width="512" xmlns="http://www.w3.org/2000/svg" xmlns:cc="http://creativecommons.org/ns#" xmlns:dc="http://purl.org/dc/elements/1.1/" xmlns:inkscape="http://www.inkscape.org/namespaces/inkscape" xmlns:rdf="http://www.w3.org/1999/02/22-rdf-syntax-ns#" xmlns:sodipodi="http://sodipodi.sourceforge.net/DTD/sodipodi-0.dtd" xmlns:svg="http://www.w3.org/2000/svg"><defs id="defs1839"/><g id="layer1" transform="translate(0,480)"><path d="" id="path3773" style="fill:#000000"/><path d="" id="path3771" style="fill:#000000"/><path d="" id="path3790" style="fill:#000000"/><path d="" id="path3788" style="fill:#000000"/><path d="" id="path3786" style="fill:#000000"/><path d="" id="path3805" style="fill:#000000;stroke-width:1"/><path d="" id="path3822" style="fill:#000000;stroke-width:1"/><path d="" id="path3820" style="fill:#000000;stroke-width:1"/><path d="" id="path3818" style="fill:#000000;stroke-width:1"/><path d="" id="path31542" style="fill:#000000;stroke-width:1"/><path d="" id="path31540" style="fill:#000000;stroke-width:1"/><path d="m 72,-436 v 16 h 8 64 8 216 c 31.16238,0 56,24.83762 56,56 v 248 72 h 16 v -72 -248 c 0,-39.74962 -32.25038,-72 -72,-72 H 152 144 80 Z m 0,32 v 40 280 c 0,39.749616 32.25038,72 72,72 H 336 440 V -28 H 424 400 336 144 c -31.16238,0 -56,-24.837616 -56,-56 v -280 -40 z" id="path8211" style="color:#000000;font-style:normal;font-variant:normal;font-weight:normal;font-stretch:normal;font-size:medium;line-height:normal;font-family:sans-serif;font-variant-ligatures:normal;font-variant-position:normal;font-variant-caps:normal;font-variant-numeric:normal;font-variant-alternates:normal;font-feature-settings:normal;text-indent:0;text-align:start;text-decoration:none;text-decoration-line:none;text-decoration-style:solid;text-decoration-color:#000000;letter-spacing:normal;word-spacing:normal;text-transform:none;writing-mode:lr-tb;direction:ltr;text-orientation:mixed;dominant-baseline:auto;baseline-shift:baseline;text-anchor:start;white-space:normal;shape-padding:0;clip-rule:nonzero;display:inline;overflow:visible;visibility:visible;opacity:1;isolation:auto;mix-blend-mode:normal;color-interpolation:sRGB;color-interpolation-filters:linearRGB;solid-color:#000000;solid-opacity:1;vector-effect:none;fill:#808080;fill-opacity:1;fill-rule:nonzero;stroke:none;stroke-width:1;stroke-linecap:butt;stroke-linejoin:round;stroke-miterlimit:4;stroke-dasharray:none;stroke-dashoffset:0;stroke-opacity:1;paint-order:fill markers stroke;color-rendering:auto;image-rendering:auto;shape-rendering:auto;text-rendering:auto;enable-background:accumulate"/><path d="m 245.73733,-147.22883 c -12.99063,-2.18242 -21.10555,-4.63008 -30.25002,-9.12418 -23.3456,-11.47329 -39.88925,-29.38851 -63.74479,-69.02965 -12.23073,-20.324 -31.50521,-59.66852 -31.50521,-64.31081 0,-2.18667 2.49787,-4.01426 6.38051,-4.66834 4.71806,-0.79488 41.15573,-0.46528 43.72896,0.39552 3.75205,1.25504 5.10804,3.06242 8.87832,11.83357 6.69375,15.57219 14.1242,29.20336 22.8945,42.00002 5.07704,7.40784 8.29144,11.03246 11.82024,13.32873 4.0689,2.64771 6.25882,2.65027 8.77019,0.0103 2.28928,-2.40651 3.37371,-5.70853 4.29867,-13.08901 1.25888,-10.04536 0.79744,-31.02297 -0.84144,-38.25 -1.15456,-5.09112 -3.56571,-8.45536 -7.61494,-10.62483 -2.25163,-1.2064 -4.88995,-2.10894 -6.19006,-2.11765 -2.38936,-0.016 -0.98864,-3.02896 2.52225,-5.42536 5.56735,-3.80011 12.37315,-4.83734 31.60275,-4.8164 23.59592,0.0256 29.03879,1.6492 31.79615,9.48421 0.57136,1.62355 0.6568,5.10571 0.45392,18.5 -0.1376,9.07501 -0.23312,21.45002 -0.21248,27.50002 0.0352,10.1702 0.1232,11.21718 1.1624,13.87912 1.57072,4.02033 3.87998,6.37088 6.25883,6.37088 2.47638,0 4.44594,-1.10048 7.9556,-4.44498 10.12253,-9.64624 23.96616,-32.91586 32.77309,-55.08794 2.58565,-6.50952 4.23163,-8.63918 7.26805,-9.40376 1.49392,-0.37616 9.6915,-0.56336 24.67398,-0.56336 21.53498,0 26.36965,0.25824 29.76237,1.58928 8.25717,3.2396 1.55984,18.28864 -21.83856,49.07136 -17.58507,23.13482 -18.92987,25.26591 -19.00592,30.1186 -0.072,4.63142 1.33488,6.88452 8.8832,14.22081 20.19337,19.62605 25.05632,24.86776 30.26723,32.62459 3.73378,5.558 5.04141,8.61754 5.04722,11.80924 0.004,2.44036 -0.16624,2.85491 -1.8812,4.5699 -1.39328,1.39328 -2.8118,2.16176 -5.4289,2.94117 -3.36782,1.00304 -4.61694,1.05504 -25.28565,1.05504 -20.27321,0 -21.93485,-0.0656 -24.58376,-0.97744 -7.06179,-2.42962 -12.64883,-6.73042 -21.13921,-16.27258 -2.69157,-3.02501 -7.4945,-8.10873 -10.67317,-11.2972 -4.88135,-4.89637 -6.23424,-5.96739 -8.70637,-6.89232 -2.52098,-0.9432 -3.17797,-1.0136 -4.7369,-0.50704 -6.19369,2.01215 -9.68894,9.81903 -10.50512,23.46387 -0.44352,7.41458 -1.25568,9.18431 -5.08454,11.07866 l -2.7203,1.34592 -12,-0.0384 c -6.6,-0.0208 -12.56252,-0.1328 -13.25,-0.24896 z" id="path31544" style="opacity:1;vector-effect:none;fill:#808080;fill-opacity:1;stroke:none;stroke-width:1;stroke-linecap:butt;stroke-linejoin:round;stroke-miterlimit:4;stroke-dasharray:none;stroke-dashoffset:0;stroke-opacity:1;paint-order:fill markers stroke"/></g></svg>