<?xml version="1.0" ?><svg height="512" id="SVGRoot" version="1.1" viewBox="0 0 512 512" width="512" xmlns="http://www.w3.org/2000/svg" xmlns:cc="http://creativecommons.org/ns#" xmlns:dc="http://purl.org/dc/elements/1.1/" xmlns:inkscape="http://www.inkscape.org/namespaces/inkscape" xmlns:rdf="http://www.w3.org/1999/02/22-rdf-syntax-ns#" xmlns:sodipodi="http://sodipodi.sourceforge.net/DTD/sodipodi-0.dtd" xmlns:svg="http://www.w3.org/2000/svg"><defs id="defs1839"/><g id="layer1" transform="translate(0,480)"><path d="" id="path3773" style="fill:#000000"/><path d="" id="path3771" style="fill:#000000"/><path d="" id="path3790" style="fill:#000000"/><path d="" id="path3788" style="fill:#000000"/><path d="" id="path3786" style="fill:#000000"/><path d="" id="path3805" style="fill:#000000;stroke-width:1"/><path d="" id="path3822" style="fill:#000000;stroke-width:1"/><path d="" id="path3820" style="fill:#000000;stroke-width:1"/><path d="" id="path3818" style="fill:#000000;stroke-width:1"/><g id="g34059" style="stroke-width:0.0625" transform="matrix(16,0,0,16,0,-480)"><path d="m 4.5,2.75 v 1 H 5 9 9.5 23 c 1.947649,0 3.5,1.552351 3.5,3.5 v 15.5 4.5 h 1 V 22.75 7.25 C 27.5,4.765649 25.484351,2.75 23,2.75 H 9.5 9 5 Z m 0,2 v 2.5 17.5 c 0,2.484351 2.015649,4.5 4.5,4.5 h 12 6.5 v -1 H 26.5 25 21 9 c -1.947649,0 -3.5,-1.552351 -3.5,-3.5 V 7.25 4.75 Z" id="path8211" style="color:#000000;font-style:normal;font-variant:normal;font-weight:normal;font-stretch:normal;font-size:medium;line-height:normal;font-family:sans-serif;font-variant-ligatures:normal;font-variant-position:normal;font-variant-caps:normal;font-variant-numeric:normal;font-variant-alternates:normal;font-feature-settings:normal;text-indent:0;text-align:start;text-decoration:none;text-decoration-line:none;text-decoration-style:solid;text-decoration-color:#000000;letter-spacing:normal;word-spacing:normal;text-transform:none;writing-mode:lr-tb;direction:ltr;text-orientation:mixed;dominant-baseline:auto;baseline-shift:baseline;text-anchor:start;white-space:normal;shape-padding:0;clip-rule:nonzero;display:inline;overflow:visible;visibility:visible;opacity:1;isolation:auto;mix-blend-mode:normal;color-interpolation:sRGB;color-interpolation-filters:linearRGB;solid-color:#000000;solid-opacity:1;vector-effect:none;fill:#808080;fill-opacity:1;fill-rule:nonzero;stroke:none;stroke-width:0.0625;stroke-linecap:butt;stroke-linejoin:round;stroke-miterlimit:4;stroke-dasharray:none;stroke-dashoffset:0;stroke-opacity:1;paint-order:fill markers stroke;color-rendering:auto;image-rendering:auto;shape-rendering:auto;text-rendering:auto;enable-background:accumulate"/><path d="M 8.8662001,22.352694 C 9.1010124,21.65453 9.4022147,20.758803 9.5355387,20.36219 L 9.7779449,19.641075 9.6757138,19.460945 C 9.1958675,18.615456 8.8977289,17.711188 8.7717371,16.719142 8.5623565,15.070501 8.9288583,13.359574 9.7945532,11.944366 c 0.3213238,-0.525288 0.6568518,-0.949103 1.1086248,-1.400337 1.101307,-1.0999881 2.55208,-1.8410405 4.04924,-2.0683439 1.573148,-0.2388398 3.102792,-0.0073 4.47378,0.6770862 0.329047,0.1642659 0.510415,0.2697816 0.830722,0.4832955 1.123229,0.7487332 2.034972,1.8117362 2.603664,3.0356202 0.346435,0.745563 0.563465,1.528405 0.646143,2.330676 0.128444,1.246354 -0.03063,2.412984 -0.485282,3.559038 -0.550873,1.388595 -1.547964,2.611323 -2.804053,3.438599 -1.022245,0.673263 -2.193976,1.084778 -3.407338,1.196666 -0.280474,0.02586 -1.071942,0.02595 -1.351867,1.42e-4 -0.908206,-0.08371 -1.754502,-0.322645 -2.595803,-0.732872 l -0.32688,-0.159389 -0.87478,0.28082 c -1.349553,0.433239 -2.2382606,0.717863 -2.7405149,0.877707 -0.2521904,0.08027 -0.4635709,0.148871 -0.4697344,0.152468 -0.00616,0.0036 0.1809129,-0.564685 0.4157254,-1.262848 z M 16.81796,21.952767 c 1.09648,-0.131102 2.106765,-0.527477 2.971913,-1.166003 1.147052,-0.846588 1.939283,-2.011806 2.330031,-3.427023 0.03369,-0.12201 0.115666,-0.545201 0.143956,-0.743132 0.170658,-1.193983 -0.0562,-2.512549 -0.621591,-3.612884 -0.308327,-0.600048 -0.633259,-1.050405 -1.098912,-1.523091 -0.348131,-0.353389 -0.622551,-0.581388 -1.009752,-0.838941 -0.768303,-0.51105 -1.680761,-0.8526893 -2.604015,-0.9749871 -0.454876,-0.060253 -1.200385,-0.056026 -1.651191,0.00936 -0.779536,0.1130712 -1.538715,0.3717811 -2.191909,0.7469511 -1.718424,0.986996 -2.853066,2.690268 -3.0936773,4.644084 -0.035664,0.289585 -0.040179,1.106165 -0.00782,1.407207 0.1045003,0.97119 0.4442703,1.903615 1.0014443,2.748249 l 0.13888,0.210532 -0.07844,0.232184 c -0.463945,1.37314 -0.690458,2.058391 -0.68041,2.058391 0.0067,0 0.374124,-0.116465 0.816605,-0.258812 1.211267,-0.389666 1.527096,-0.489618 1.546134,-0.489313 0.0096,1.58e-4 0.08847,0.0454 0.175434,0.100545 0.228724,0.145046 0.689165,0.374804 0.972395,0.485219 0.242923,0.0947 0.554007,0.194313 0.799296,0.25594 0.180054,0.04524 0.645961,0.122378 0.860892,0.14254 0.10001,0.0094 0.21029,0.01989 0.245075,0.02335 0.140556,0.014 0.834895,-0.0064 1.035641,-0.03037 z m 1.177942,-2.437559 C 17.676557,19.475184 17.157684,19.29968 16.392882,18.972993 15.649287,18.655365 15.124416,18.29168 14.476427,17.645074 13.90768,17.07754 13.596604,16.675803 13.012814,15.754892 12.892782,15.565547 12.713377,15.210429 12.630452,14.99804 12.49278,14.64543 12.40799,14.18073 12.429564,13.897064 c 0.04462,-0.586653 0.249853,-1.0365 0.658467,-1.443273 0.125099,-0.124534 0.178779,-0.165775 0.275662,-0.211785 0.107906,-0.05124 0.134462,-0.05731 0.257544,-0.0588 0.07548,-9.18e-4 0.23559,0.0047 0.355804,0.01255 0.356898,0.02322 0.334087,-0.0076 0.667631,0.902838 0.210585,0.574829 0.262539,0.713955 0.30924,0.82811 0.07909,0.19334 0.07791,0.237345 -0.01107,0.411197 -0.07827,0.152909 -0.206338,0.313003 -0.450518,0.563181 -0.0679,0.06957 -0.130944,0.146521 -0.140094,0.171002 -0.03963,0.106032 -0.0071,0.202332 0.163191,0.482287 0.256033,0.421039 0.483493,0.713776 0.808129,1.040048 0.440659,0.442879 0.814054,0.707542 1.402846,0.994338 0.305537,0.148825 0.381152,0.165237 0.480933,0.104393 0.05848,-0.03566 0.330988,-0.331745 0.590939,-0.642076 0.102139,-0.121938 0.197296,-0.231317 0.211451,-0.243065 0.04605,-0.03823 0.156595,-0.03967 0.265121,-0.0035 0.167823,0.05597 1.584164,0.808351 1.657852,0.880686 0.03413,0.0335 0.04019,0.05546 0.0451,0.163717 0.01064,0.234404 -0.08878,0.66645 -0.195194,0.848218 -0.160505,0.274158 -0.555225,0.556971 -0.995255,0.713092 -0.0604,0.02143 -0.184912,0.04889 -0.276698,0.06102 -0.09178,0.01213 -0.205209,0.02939 -0.252052,0.03835 -0.08303,0.01588 -0.166497,0.01766 -0.262682,0.0056 z" id="path34055" style="fill:#808080;fill-opacity:1;stroke-width:0.0625"/></g></g></svg>