<?xml version="1.0" ?><svg height="512" id="SVGRoot" version="1.1" viewBox="0 0 512 512" width="512" xmlns="http://www.w3.org/2000/svg" xmlns:cc="http://creativecommons.org/ns#" xmlns:dc="http://purl.org/dc/elements/1.1/" xmlns:inkscape="http://www.inkscape.org/namespaces/inkscape" xmlns:rdf="http://www.w3.org/1999/02/22-rdf-syntax-ns#" xmlns:sodipodi="http://sodipodi.sourceforge.net/DTD/sodipodi-0.dtd" xmlns:svg="http://www.w3.org/2000/svg"><defs id="defs1839"/><g id="layer1" transform="translate(0,480)"><path d="m 187.64,-64.529312 c -8.92394,-3.181024 -11.81779,-21.298336 -8.26514,-51.745028 1.5464,-13.25329 2.45332,-17.55436 14.45199,-68.54534 l 11.62789,-49.41506 -1.60063,-5.11646 c -2.91203,-9.30851 -3.69593,-15.40168 -3.35982,-26.11418 0.35248,-11.23484 1.56464,-16.78275 5.4352,-24.88009 7.38795,-15.45531 19.58909,-24.114 33.88653,-24.04799 8.76284,0.0368 15.34155,2.77296 20.64379,8.57448 7.1396,7.81184 9.66067,19.21965 7.27229,32.90661 -1.21872,6.98447 -3.34384,15.04754 -8.19669,31.10079 -6.38546,21.12316 -7.34219,25.28947 -7.08883,30.86868 0.93456,20.57719 25.90676,28.18783 45.32238,13.8126 17.16662,-12.71018 28.93867,-42.6205 30.23146,-76.81221 0.6464,-17.09242 -1.90556,-28.89399 -8.80656,-40.72658 -3.32282,-5.69727 -12.48247,-14.86936 -18.36162,-18.38641 -19.50006,-11.66543 -47.5661,-14.00461 -71.5905,-5.96671 -12.47049,4.17229 -20.3892,9.13748 -30.24744,18.96584 -16.23193,16.18264 -24.47982,37.14623 -23.56427,59.89336 0.49664,12.3384 2.82011,19.23743 9.50754,28.22962 5.82601,7.83403 5.97787,9.19299 2.56081,22.91657 -1.98416,7.96845 -2.62476,9.63927 -4.59292,11.97829 -3.69263,4.38847 -8.66658,4.8368 -15.78948,1.4232 -15.00973,-7.19315 -26.40346,-21.19237 -32.16905,-39.52517 -6.85011,-21.78132 -6.00547,-47.1732 2.30248,-69.21892 12.85563,-34.11309 40.96349,-60.47854 77.18096,-72.39652 15.50549,-5.10231 29.56277,-7.226 47.95035,-7.24406 22.7921,-0.0224 39.70315,3.67908 58.26771,12.75363 32.24423,15.76127 54.0596,44.47239 60.00018,78.96594 1.21568,7.0579 1.34912,26.05422 0.24816,35.2768 -7.03674,58.94227 -38.94803,98.9823 -85.20127,106.90435 -20.30035,3.47702 -39.00956,-0.50496 -52.74552,-11.2264 -3.49446,-2.72757 -4.13926,-3.02715 -4.53137,-2.10568 -0.25152,0.59104 -2.46656,8.972 -4.92243,18.62477 -4.86103,19.10606 -8.00202,29.53221 -11.9797,39.76529 -11.37317,29.258692 -23.78989,44.10746 -33.87654,40.511924 z" id="path8927" style="fill:#808080;fill-opacity:1;stroke-width:1"/><g id="layer1-8" style="stroke-width:0.0625" transform="matrix(16,0,0,16,0,-480)"><path d="m 4.5,2.75 v 1 H 5 9 9.5 23 c 1.947649,0 3.5,1.552351 3.5,3.5 v 15.5 4.5 h 1 V 22.75 7.25 C 27.5,4.765649 25.484351,2.75 23,2.75 H 9.5 9 5 Z m 0,2 v 2.5 17.5 c 0,2.484351 2.015649,4.5 4.5,4.5 h 12 6.5 v -1 H 26.5 25 21 9 c -1.947649,0 -3.5,-1.552351 -3.5,-3.5 V 7.25 4.75 Z" id="path8211" style="color:#000000;font-style:normal;font-variant:normal;font-weight:normal;font-stretch:normal;font-size:medium;line-height:normal;font-family:sans-serif;font-variant-ligatures:normal;font-variant-position:normal;font-variant-caps:normal;font-variant-numeric:normal;font-variant-alternates:normal;font-feature-settings:normal;text-indent:0;text-align:start;text-decoration:none;text-decoration-line:none;text-decoration-style:solid;text-decoration-color:#000000;letter-spacing:normal;word-spacing:normal;text-transform:none;writing-mode:lr-tb;direction:ltr;text-orientation:mixed;dominant-baseline:auto;baseline-shift:baseline;text-anchor:start;white-space:normal;shape-padding:0;clip-rule:nonzero;display:inline;overflow:visible;visibility:visible;opacity:1;isolation:auto;mix-blend-mode:normal;color-interpolation:sRGB;color-interpolation-filters:linearRGB;solid-color:#000000;solid-opacity:1;vector-effect:none;fill:#808080;fill-opacity:1;fill-rule:nonzero;stroke:none;stroke-width:0.0625;stroke-linecap:butt;stroke-linejoin:round;stroke-miterlimit:4;stroke-dasharray:none;stroke-dashoffset:0;stroke-opacity:1;paint-order:fill markers stroke;color-rendering:auto;image-rendering:auto;shape-rendering:auto;text-rendering:auto;enable-background:accumulate"/><path d="" id="path3773" style="fill:#000000;stroke-width:0.0625"/><path d="" id="path3771" style="fill:#000000;stroke-width:0.0625"/><path d="" id="path3790" style="fill:#000000;stroke-width:0.0625"/><path d="" id="path3788" style="fill:#000000;stroke-width:0.0625"/><path d="" id="path3786" style="fill:#000000;stroke-width:0.0625"/><path d="" id="path3805" style="fill:#000000;stroke-width:0.0625"/><path d="" id="path3822" style="fill:#000000;stroke-width:0.0625"/><path d="" id="path3820" style="fill:#000000;stroke-width:0.0625"/><path d="" id="path3818" style="fill:#000000;stroke-width:0.0625"/></g></g></svg>